#N canvas 1136 131 714 275 10;
#X declare -lib mrpeach;
#X obj 215 73 import mrpeach;
#X obj 164 389 udpsend;
#X obj 228 352 packOSC;
#X floatatom 273 158 5 0 0 0 - - -;
#X msg 122 259 connect localhost 4444;
#X floatatom 415 160 5 0 0 0 - - -;
#X msg 273 218 send /CubeX \$1;
#X msg 416 222 send /CubeY \$1;
#X floatatom 552 158 5 0 0 0 - - -;
#X msg 553 220 send /CubeZ \$1;
#X floatatom 473 252 5 0 0 0 - - -;
#X floatatom 556 251 5 0 0 0 - - -;
#X floatatom 682 247 5 0 0 0 - - -;
#X msg 420 289 send /RotationX \$1;
#X msg 553 286 send /RotationY \$1;
#X msg 681 283 send /RotationZ \$1;
#X obj 698 158 udpreceive 4445;
#X obj 704 192 unpackOSC;
#X obj 701 220 print;
#X connect 2 0 1 0;
#X connect 3 0 6 0;
#X connect 4 0 1 0;
#X connect 5 0 7 0;
#X connect 6 0 2 0;
#X connect 7 0 2 0;
#X connect 8 0 9 0;
#X connect 9 0 2 0;
#X connect 10 0 13 0;
#X connect 11 0 14 0;
#X connect 12 0 15 0;
#X connect 13 0 2 0;
#X connect 14 0 2 0;
#X connect 15 0 2 0;
#X connect 16 0 17 0;
#X connect 17 0 18 0;
